<?xml version="1.0" encoding="utf-8"?>
<!-- Generator: Adobe Illustrator 26.0.2, SVG Export Plug-In . SVG Version: 6.00 Build 0)  -->
<svg version="1.1" id="Layer_1" xmlns="http://www.w3.org/2000/svg" xmlns:xlink="http://www.w3.org/1999/xlink" x="0px" y="0px"
	 viewBox="0 0 340 200" style="enable-background:new 0 0 340 200;" xml:space="preserve">
<style type="text/css">
	.st0{fill:#20385B;}
	.st1{fill:#0082FF;}
	.st2{fill:url(#SVGID_1_);}
	.st3{fill:url(#SVGID_00000160896060327195637080000015721837646796660413_);}
	.st4{fill:#0052CC;}
</style>
<g>
	<g id="Logo_Lock-up">
		<path class="st0" d="M135.6,92.2h7.9v40.2c0,10.6-4.7,17.9-15.6,17.9c-3.2,0.1-6.4-0.5-9.5-1.5v-7.7c2.6,1,5.4,1.5,8.2,1.5
			c6.7,0,9-4,9-9.8L135.6,92.2z"/>
		<path class="st0" d="M158,89.1c2.9,0,5.3,2.4,5.3,5.3s-2.4,5.3-5.3,5.3s-5.3-2.4-5.3-5.3l0,0c-0.2-2.7,1.9-5.1,4.6-5.3
			C157.5,89.1,157.8,89.1,158,89.1z M154.1,106h7.6v44h-7.6V106z"/>
		<path class="st0" d="M180.5,150h-7.4v-44h7.4v7.8c2.6-5.2,6.9-8.9,15.6-8.4v7.4c-9.7-1-15.6,1.9-15.6,11.3V150z"/>
		<path class="st0" d="M231.5,142.1c-2.8,5.8-8.1,8.8-14.9,8.8c-11.7,0-17.6-9.9-17.6-22.9c0-12.4,6.2-22.9,18.5-22.9
			c6.4,0,11.4,2.9,14,8.6V106h7.6v44h-7.6L231.5,142.1z M218.7,143.8c6.8,0,12.9-4.3,12.9-14.1v-3.5c0-9.8-5.6-14.1-12-14.1
			c-8.5,0-12.9,5.6-12.9,15.8C206.6,138.6,210.9,143.8,218.7,143.8L218.7,143.8z"/>
		<path class="st1" d="M95.9,83.2H61.3c0,8.6,7,15.6,15.6,15.6c0,0,0,0,0,0h6.4v6.1c0,8.6,7,15.6,15.6,15.6l0,0V86.2
			C98.9,84.5,97.5,83.2,95.9,83.2L95.9,83.2z"/>
		
			<linearGradient id="SVGID_1_" gradientUnits="userSpaceOnUse" x1="81.0326" y1="101.5272" x2="66.3226" y2="86.3572" gradientTransform="matrix(1 0 0 -1 0 202)">
			<stop  offset="0.18" style="stop-color:#0050D3"/>
			<stop  offset="1" style="stop-color:#0082FF"/>
		</linearGradient>
		<path class="st2" d="M78.8,100.4H44.2c0,8.6,7,15.6,15.6,15.6h6.4v6.2c0,8.6,7,15.6,15.6,15.6v-34.3
			C81.8,101.8,80.4,100.4,78.8,100.4L78.8,100.4z"/>
		
			<linearGradient id="SVGID_00000142868825077026769710000002171626036159817864_" gradientUnits="userSpaceOnUse" x1="64.8974" y1="84.2026" x2="47.8874" y2="67.6526" gradientTransform="matrix(1 0 0 -1 0 202)">
			<stop  offset="0.18" style="stop-color:#0050D3"/>
			<stop  offset="1" style="stop-color:#0082FF"/>
		</linearGradient>
		<path style="fill:url(#SVGID_00000142868825077026769710000002171626036159817864_);" d="M61.7,117.6H27.1c0,8.6,7,15.6,15.6,15.6
			l0,0H49v6.1c0,8.6,7,15.6,15.6,15.6h0v-34.4C64.7,119,63.3,117.6,61.7,117.6z"/>
	</g>
	<g id="Attribution">
		<path class="st4" d="M224.9,63.7c0-4-2.6-5.8-7.4-7c-3-0.8-3.7-1.4-3.7-2.4c0-1.2,1.1-1.8,3.1-1.8c2.4,0.1,4.8,0.7,7,1.8v-5
			c-2.1-1-4.5-1.5-6.8-1.5c-5.3,0-8.2,2.5-8.2,6.6c0,3.9,2.6,5.9,7,6.9c3.1,0.7,4,1.2,4,2.5c0,1-0.7,1.8-3,1.8
			c-2.8-0.1-5.6-0.9-8.1-2.3v5.3c2.5,1.2,5.2,1.9,8,1.9C222.2,70.5,224.9,67.8,224.9,63.7z"/>
		<path class="st4" d="M285.3,48.2v22h4.7V53.4l2,4.4l6.6,12.3h5.9v-22h-4.7v14.2l-1.8-4.1l-5.3-10.1H285.3z"/>
		<path class="st4" d="M255.6,48.2h-5.1v22h5.1V48.2z"/>
		<path class="st4" d="M169.2,48.2v22h10.5l1.6-4.8h-7V48.2H169.2z"/>
		<path class="st4" d="M148.4,48.2V53h5.7v17.2h5.1V53h6.1v-4.8H148.4z"/>
		<path class="st4" d="M141,48.2h-6.7l-7.7,22h5.9l1.1-3.7c1.3,0.4,2.7,0.6,4.1,0.6c1.4,0,2.8-0.2,4.1-0.6l1.1,3.7h5.9L141,48.2z
			 M137.6,62.5c-1,0-1.9-0.1-2.8-0.4l2.8-9.6l2.8,9.6C139.5,62.4,138.6,62.5,137.6,62.5L137.6,62.5z"/>
		<path class="st4" d="M197.7,48.2H191l-7.7,22h5.9l1.1-3.7c1.3,0.4,2.7,0.6,4.1,0.6c1.4,0,2.8-0.2,4.1-0.6l1.1,3.7h5.9L197.7,48.2z
			 M194.4,62.5c-1,0-1.9-0.1-2.8-0.4l2.8-9.6l2.8,9.6C196.3,62.4,195.3,62.5,194.4,62.5z"/>
		<path class="st4" d="M274,48.2h-6.7l-7.7,22h5.9l1.1-3.7c1.3,0.4,2.7,0.6,4.1,0.6c1.4,0,2.8-0.2,4.1-0.6l1.1,3.7h5.9L274,48.2z
			 M270.6,62.5c-1,0-1.9-0.1-2.8-0.4l2.8-9.6l2.8,9.6C272.5,62.4,271.6,62.5,270.6,62.5L270.6,62.5z"/>
		<path class="st4" d="M245.2,63.7c0-4-2.6-5.8-7.4-7c-3-0.8-3.7-1.4-3.7-2.4c0-1.2,1.1-1.8,3-1.8c2.4,0.1,4.8,0.7,7,1.8v-5
			c-2.2-1-4.5-1.5-6.9-1.5c-5.3,0-8.2,2.5-8.2,6.6c0,3.9,2.6,5.9,7,6.9c3.1,0.7,4,1.2,4,2.5c0,1-0.7,1.8-3,1.8
			c-2.8-0.1-5.6-0.9-8.1-2.3v5.3c2.5,1.2,5.2,1.9,8,1.9C242.6,70.5,245.2,67.8,245.2,63.7z"/>
	</g>
</g>
</svg>
