<svg xmlns="http://www.w3.org/2000/svg" width="226" height="55" viewBox="0 0 226 55">
    <g fill="none" fill-rule="evenodd">
        <g>
            <g>
                <path fill="#67ACE6" d="M12.85 40.464L12.85 45.653 3.115 45.653 3.115 40.464-.001 40.464-.001 53.857 3.115 53.857 3.115 48.092 12.85 48.092 12.85 53.857 15.99 53.857 15.99 40.464zM24.582 40.464L24.582 53.857 38.417 53.857 38.417 51.337 27.697 51.337 27.697 48.015 33.873 48.015 33.873 45.731 27.697 45.731 27.697 42.746 38.287 42.746 38.287 40.464zM53.187 40.464l-7.58 13.393h3.116l1.557-2.935h8.488l1.61 2.935h3.504l-7.684-13.393h-3.011zm1.402 2.595l2.88 5.45h-5.864l2.984-5.45zM71.85 40.464L71.85 53.857 85.012 53.857 85.012 51.337 74.966 51.337 74.966 40.464zM87.685 40.464L87.685 42.851 93.838 42.851 93.838 53.857 96.954 53.857 96.954 42.851 103.13 42.851 103.13 40.464zM123.429 40.464L123.429 45.653 113.694 45.653 113.694 40.464 110.579 40.464 110.579 53.857 113.694 53.857 113.694 48.092 123.429 48.092 123.429 53.857 126.571 53.857 126.571 40.464z" transform="translate(-34 -93) translate(34 93)"/>
                <g>
                    <path fill="#67ACE6" d="M148.215 42.475h-7.01v3.609h7.01c.485 0 .822-.055 1.014-.158.258-.159.388-.466.388-.924v-1.448c0-.455-.13-.762-.388-.92-.192-.107-.529-.16-1.014-.16zm-10.071 11.111V40.191h11.473c2.007 0 3.01.864 3.01 2.595v2.986c0 1.729-1.003 2.595-3.01 2.595h-8.411v5.22h-3.062zM159.169 53.586L159.169 40.191 162.285 40.191 162.285 51.066 172.33 51.066 172.33 53.586zM184.218 48.237h5.867l-2.882-5.45-2.985 5.45zm-5.996 5.35l7.579-13.395h3.012l7.684 13.394h-3.504l-1.61-2.937h-8.488l-1.558 2.937h-3.115zM203.375 53.586V40.19h2.13l9.422 7.89c.675.572 1.185 1.055 1.532 1.453-.088-1.246-.13-2.015-.13-2.308V40.19h2.804v13.395h-2.13l-9.837-8.283c-.416-.344-.788-.71-1.117-1.089.087.866.13 1.577.13 2.128v7.244h-2.804z" transform="translate(-34 -93) translate(34 93) translate(5.325 .272)"/>
                    <path fill="#00407C" d="M12.836 11.33l-4.532-.96C5.21 9.703 3.637 8.306 3.637 6.213c0-2.493 2.133-4.301 5.067-4.301 4.887 0 6.972 4.056 8.349 6.74l.132.255h1.485l-.778-8.35h-1.039l-.22.011-.142.164c-.4.474-.666.79-1.444.79-.492 0-1.591-.416-1.955-.55C10.797.13 9.781.059 8.937.059 4.774.06.556 2.742.556 7.864c0 1.733.487 4.147 2.805 5.797 1.314.942 2.659 1.382 6.262 2.04 4.74.85 6.996 1.82 6.996 5.037 0 3.036-2.17 4.991-5.53 4.991-2.469 0-4.631-1.066-6.61-3.267-1.235-1.37-1.616-2.623-2.017-3.95l-.213-.699H.635v9.309h1.548l.133-.245c.19-.358.55-1.025 1.855-1.025.334 0 .834 0 2.596.7 2.43.955 3.46 1.03 4.553 1.03 5.168 0 8.917-3.492 8.917-8.303 0-4.223-2.488-6.898-7.4-7.948M75.785 2.48l.457.008c4.152.071 4.152 1.567 4.152 3.302v14.247L63.394.56H55.57v1.913l.451.016c2.463.083 3.892.584 3.892 2.916v16.68c0 1.424 0 3.039-3.886 3.11l-.457.006v1.923h10.765v-1.93h-.463c-2.92 0-4.222-.432-4.222-2.994V5.646l19 21.743h1.596V5.79c0-1.954 0-3.131 3.287-3.302l.441-.02V.558h-10.19V2.48zM91.329.559v1.924l.46.005c2.613.039 3.036.333 3.036 2.108v18.486c0 1.702-.26 2.071-3.037 2.111l-.459.005v1.924h11.767v-1.924l-.458-.005c-2.64-.037-3.039-.314-3.039-2.111V14.67h3.033c3.082 0 3.81 1.01 4.424 4.049l.075.37h1.652V8.744h-1.636l-.088.353c-.56 2.25-1.14 3.722-3.969 3.722H99.6V4.484c0-1.623.456-2.032 4.647-2.032 2.504 0 5.622 0 8.823 5.27l.136.225h1.796L112.936.559H91.329zM160.966 4.596c0-.904.37-2.108 3.57-2.108 3.39 0 5.494.95 5.494 5.683 0 2.858-.502 5.224-6.646 5.224h-2.418v-8.8zm13.796 16.655l-.513-.776c-2.436-3.683-3.307-5-4.2-5.878 3.485-1.173 5.252-3.32 5.252-6.387 0-4.505-3.953-7.65-9.611-7.65h-12.992v1.923l.458.005c2.646.038 3.077.333 3.077 2.108v18.486c0 1.703-.266 2.07-3.077 2.111l-.458.006v1.923h11.804V25.2l-.458-.006c-2.647-.038-3.078-.334-3.078-2.111v-7.833h2.34c1.498 0 1.887.426 2.232.806.933 1.022 4.272 5.976 6.264 8.937.576.852 1.04 1.543 1.307 1.928l.139.202h6.125v-1.918l-.454-.01c-1.523-.037-2.072-.78-4.157-3.943zM192.502 4.367c0-1.323.491-1.879 3.53-1.879 2.516 0 4.414.142 6.125.85 3.724 1.558 5.862 5.38 5.862 10.483 0 7.758-3.525 11.372-11.1 11.372-4.281 0-4.417-.352-4.417-2.226v-18.6zm17.425.908c-1.9-2.152-5.487-4.716-11.78-4.716H184.27v1.924l.46.005c2.613.038 3.036.333 3.036 2.108v18.486c0 1.703-.26 2.07-3.035 2.111l-.46.004v1.926h14.374c8.623 0 14.648-5.363 14.648-13.033 0-3.138-1.261-6.432-3.366-8.815zM119.862 19.325c1.27 3.278 3.72 5.716 6.953 7.065v-7.065h-6.953zM126.815 11.578h-7.749c-.117.735-.178 1.495-.178 2.283 0 .66.04 1.3.112 1.921h7.815v-4.204zM134.245.136c-1.117 0-2.208.094-3.25.276v7.675h7.574v3.491h-7.574v4.204h11.347v3.543h-11.347v8.134c.69.08 1.403.122 2.135.122 12.755 0 15.359-8.999 15.359-13.72 0-8.409-5.951-13.725-14.244-13.725M126.815 1.685c-2.97 1.363-5.316 3.572-6.664 6.402h6.664V1.685zM32.408 15.854l4.099-10.003 3.905 10.003h-8.004zm18.83 9.34c-1.485 0-2.299 0-3.453-2.896L39.065.1h-2.161l-7.62 18.542-.016.045c-1.737 4.262-2.606 6.404-5.18 6.506l-.447.015v1.915h9.306v-1.93h-.465c-1.884 0-2.725-.545-2.725-1.765 0-1.094.347-2.001 1.652-5.146h9.944l1.639 4.026.048.13c.118.327.43 1.204.43 1.797 0 .803-1.068.958-3.032.958h-.467v1.93h11.73v-1.93h-.464zM215.078 1.717v.816h.393c.423 0 .624-.103.624-.392 0-.304-.201-.424-.635-.424h-.382zm1.494.376c0 .35-.207.594-.562.664l.55 1.124h-.52l-.501-1.05h-.461v1.05h-.465V1.415h.93c.69 0 1.029.23 1.029.678zm.265-.732C216.476.99 216.01.8 215.489.8c-.507 0-.973.185-1.318.535-.369.377-.574.86-.574 1.356 0 .496.2.96.556 1.326.356.36.834.56 1.318.56.514 0 .98-.194 1.354-.556.358-.345.55-.809.55-1.312 0-.523-.187-.997-.538-1.348zm.2-.199c.4.406.63.947.63 1.529 0 .599-.225 1.129-.636 1.53-.429.415-.98.645-1.547.645-.58 0-1.118-.23-1.536-.651-.412-.42-.635-.95-.635-1.524 0-.574.236-1.13.659-1.56.399-.404.925-.617 1.512-.617.592 0 1.137.225 1.554.648z" transform="translate(-34 -93) translate(34 93) translate(5.325 .272)"/>
                </g>
            </g>
        </g>
    </g>
</svg>
